<svg width="2500" height="608" viewBox="0 0 2500 608" fill="none" xmlns="http://www.w3.org/2000/svg">
<path d="M401.228 71.6335C402.59 53.2002 408.361 35.3639 418.055 19.6262C420.611 15.2951 423.448 11.4949 426.17 7.14715C450.497 12.4408 474.045 20.8044 496.265 32.0721C488.112 42.6954 482.708 55.1674 480.533 68.3809C478.343 82.8182 480.036 97.5873 485.396 111.195C491.156 124.393 499.658 136.216 510.337 145.877C520.567 155.221 532.071 163.066 544.505 169.176C568.588 180.972 594.663 188.165 621.388 190.384C626.781 190.915 632.207 190.915 637.65 190.915C638.712 194.167 640.355 197.951 641.434 201.751C631.361 203.029 621.222 203.742 611.066 203.925C573.114 205.004 534.615 200.141 499.385 187.662C464.121 174.569 431.596 153.444 414.305 122.562C404.643 107.408 400.062 89.5681 401.228 71.6335ZM595.849 330.093C534.051 326.841 472.236 313.847 415.848 287.279C387.132 274.288 360.466 257.176 336.692 236.483C312.846 215.226 292.235 189.77 279.773 159.95C266.816 130.158 262.492 97.325 267.294 65.1948C270.148 46.9574 275.624 29.2345 283.556 12.5902C249.414 22.2052 217.403 38.2024 189.216 59.7352C188.685 64.0996 188.138 68.9617 187.607 73.2929C184.885 108.639 192.419 144.002 209.296 175.183C225.558 206.016 250.417 233.082 278.595 254.771C307.485 276.381 339.235 293.878 372.934 306.761C440.706 333.313 514.436 344.165 587.668 343.618C608.86 343.442 630.029 342.179 651.092 339.834C651.623 336.582 652.187 333.329 652.718 329.579C633.809 331.109 614.815 331.276 595.882 330.077L595.849 330.093ZM361.634 206.032C383.545 222.603 407.627 236.087 433.206 246.108C484.732 266.154 541.12 274.817 597.11 273.738C616.322 273.579 635.509 272.316 654.577 269.955C654.697 268.494 654.51 267.024 654.029 265.64C654.029 263.981 653.498 262.371 653.498 260.728C638.845 261.276 624.209 261.276 609.572 260.728C565.088 258.427 521.435 247.764 480.898 229.298C460.609 219.695 441.668 207.471 424.56 192.939C407.111 177.679 392.907 159.068 382.792 138.211C372.819 116.737 369.424 92.7926 373.034 69.3932C376.551 47.0317 385.447 25.8589 398.955 7.69477C399.901 6.31743 400.996 5.03965 402.224 3.89462C381.259 0.723957 359.997 5.95754e-06 338.866 1.73734C330.187 2.28496 322.072 3.89462 313.924 4.97327C303.471 24.6471 297.025 46.1988 294.957 68.3809C292.302 94.9322 297.595 121.683 310.141 145.214C321.525 169.176 340.044 189.77 361.634 206.032ZM586.689 400.686C507.499 397.417 428.344 381.155 355.676 348.662C318.81 332.526 284.478 311.128 253.753 285.139C222.837 259.118 196.253 227.688 178.911 190.384C163.803 158.052 156.775 122.533 158.434 86.8838C112.913 132.943 84.0869 192.891 76.5337 257.206C68.9805 321.522 83.1332 386.517 116.744 441.869C150.355 497.221 201.497 539.756 262.047 562.718C322.597 585.68 389.083 587.753 450.945 568.606C491.979 555.885 529.68 534.219 561.331 505.171C592.982 476.122 617.796 440.414 633.983 400.62C618.168 401.118 602.404 401.101 586.689 400.553V400.686ZM515.647 42.9083C510.844 51.5409 508.208 61.2101 507.964 71.0859C507.914 79.9805 510.603 88.676 515.647 95.9942C525.405 111.162 542.763 121.45 561.747 127.424C577.213 132.071 593.293 134.311 609.44 134.029C585.087 97.2681 553.096 66.1887 515.647 42.9083Z" fill="white"/>
<path d="M1080.79 535.284C1063.12 526.177 1048.42 512.216 1038.41 495.043C1028.09 477.689 1022.8 457.811 1023.12 437.626C1022.8 417.447 1028.08 397.575 1038.39 380.225C1048.68 363.278 1063.32 349.394 1080.79 340.017C1099.59 330.06 1120.62 324.999 1141.91 325.314C1163.04 324.936 1183.92 330.005 1202.53 340.033C1220.08 349.276 1234.75 363.191 1244.89 380.242C1255.21 397.618 1260.65 417.452 1260.65 437.659C1260.65 457.866 1255.21 477.7 1244.89 495.076C1234.61 512.019 1219.98 525.907 1202.53 535.301C1183.9 545.274 1163.04 550.34 1141.91 550.02C1120.67 549.898 1099.75 544.854 1080.79 535.284ZM1176.39 497.98C1186.52 492.158 1194.88 483.684 1200.55 473.47C1206.37 462.429 1209.41 450.138 1209.41 437.659C1209.41 425.18 1206.37 412.889 1200.55 401.848C1194.88 391.625 1186.52 383.141 1176.39 377.305C1165.64 371.512 1153.62 368.48 1141.4 368.48C1129.19 368.48 1117.17 371.512 1106.41 377.305C1096.3 383.148 1087.96 391.624 1082.28 401.831C1076.46 412.874 1073.42 425.168 1073.42 437.651C1073.42 450.133 1076.46 462.427 1082.28 473.47C1087.96 483.692 1096.31 492.176 1106.45 498.013C1117.1 503.95 1129.13 506.999 1141.33 506.858C1153.6 507.084 1165.71 504.018 1176.39 497.98ZM953.61 73.2265C946.225 61.4444 935.389 52.6161 921.068 46.2272C906.73 39.8384 889.987 36.9675 870.787 36.9675H776.696V252.846H826.977V192.906H870.836C890.036 192.906 906.813 189.969 921.118 183.646C934.38 178.051 945.698 168.672 953.66 156.68C961.293 144.135 965.243 129.681 965.01 115.012C965.323 100.264 961.364 85.7414 953.61 73.1933V73.2265ZM914.696 115.426C914.696 127.192 910.763 136.518 902.847 142.89C894.948 149.246 883.15 152.698 868.364 152.698H827.458V77.6241H868.364C883.631 77.6241 894.965 81.0426 902.847 87.4148C910.73 93.7871 914.696 103.13 914.696 115.41V115.426ZM1042.32 36.9011H992.574V253.261H1039.87L1143.37 112.439V253.261H1193.15V36.9011H1145.84L1042.32 177.706V36.9011ZM1385.35 206.663H1284.32L1265.11 253.261H1213.36L1310.44 36.9011H1360.23L1457.32 253.261H1404.58L1385.35 206.663ZM1369.09 168.877L1334.57 85.9545L1300.09 168.877H1369.09ZM975.78 546.071V329.711H925.549V415.074H826.977V329.711H776.696V546.071H826.977V457.274H925.549V546.071H975.78ZM1498.69 485.235C1498.69 471.993 1495.26 461.173 1488.35 452.362C1480.45 443.141 1469.98 436.476 1458.28 433.212C1467.58 429.262 1475.47 422.608 1480.93 414.128C1486.39 405.648 1489.13 395.708 1488.83 385.635C1488.83 367.978 1481.86 354.222 1467.64 344.414C1453.44 334.59 1433.67 329.711 1408.53 329.711H1307.5V546.071H1414.47C1441.59 546.071 1462.27 540.678 1477.07 529.858C1491.32 519.569 1498.72 504.369 1498.72 485.219L1498.69 485.235ZM1404.07 419.007H1357.27V366.02H1404.1C1414.94 366.02 1422.82 368.46 1428.74 372.957C1431.49 375.411 1433.67 378.441 1435.12 381.831C1436.57 385.22 1437.25 388.888 1437.12 392.572C1437.12 401.416 1434.17 407.772 1428.74 412.203C1423.33 416.617 1414.94 419.007 1404.1 419.007H1404.07ZM1412.45 453.722C1436.1 453.722 1447.93 462.567 1447.93 480.722C1447.93 499.374 1436.1 508.7 1412.45 508.683H1357.26V453.822L1412.45 453.722ZM1588.9 535.201C1571.22 526.097 1556.51 512.136 1546.5 494.96C1536.19 477.605 1530.9 457.727 1531.23 437.543C1530.9 417.359 1536.19 397.481 1546.5 380.126C1556.78 363.174 1571.42 349.289 1588.9 339.917C1607.72 329.98 1628.74 324.957 1650.02 325.314C1671.15 324.932 1692.03 330.001 1710.64 340.033C1728.2 349.275 1742.86 363.19 1753.02 380.242C1763.33 397.617 1768.78 417.451 1768.78 437.659C1768.78 457.866 1763.33 477.701 1753.02 495.076C1742.74 512.029 1728.1 525.919 1710.64 535.301C1692.01 545.28 1671.15 550.351 1650.02 550.037C1628.79 549.844 1607.89 544.792 1588.91 535.268L1588.9 535.201ZM1684.57 497.997C1694.7 492.156 1703.05 483.666 1708.73 473.437C1714.54 462.398 1717.58 450.11 1717.58 437.634C1717.58 425.158 1714.54 412.87 1708.73 401.831C1703.05 391.607 1694.7 383.118 1684.57 377.271C1673.81 371.48 1661.78 368.449 1649.57 368.449C1637.35 368.449 1625.33 371.48 1614.57 377.271C1604.44 383.119 1596.1 391.608 1590.42 401.831C1584.61 412.872 1581.57 425.163 1581.57 437.642C1581.57 450.121 1584.61 462.413 1590.42 473.453C1596.09 483.675 1604.44 492.16 1614.57 497.997C1625.23 503.928 1637.25 506.971 1649.45 506.825C1661.73 507.075 1673.86 504.026 1684.57 497.997ZM1815.68 495.541C1826.11 512.241 1840.71 525.937 1858.04 535.284C1876.27 545.092 1896 549.489 1918.66 549.489C1936.2 549.644 1953.59 546.31 1969.83 539.682C1984.76 533.242 1997.94 523.318 2008.26 510.741L1975.7 481.302C1960.91 498.478 1942.69 506.758 1920.99 506.758C1908.43 506.983 1896.03 503.934 1885.01 497.914C1874.75 492.096 1866.23 483.625 1860.37 473.387C1854.54 462.345 1851.5 450.051 1851.5 437.568C1851.5 425.085 1854.54 412.79 1860.37 401.748C1866.24 391.514 1874.75 383.043 1885.01 377.222C1896.03 371.207 1908.43 368.164 1920.99 368.393C1942.69 368.393 1960.91 377.222 1975.7 393.866L2008.26 364.411C1997.91 351.989 1984.73 342.235 1969.83 335.968C1953.59 329.345 1936.2 326.006 1918.66 326.144C1896 326.144 1875.78 330.574 1858.04 340.382C1840.41 349.293 1825.7 363.082 1815.68 380.109C1805.32 396.803 1800.4 415.953 1800.4 437.526C1800.4 459.099 1805.27 478.846 1815.63 495.541H1815.68ZM2212.4 370.534H2142.91V546.17H2093.14V370.434H2024.07V329.711H2212.44L2212.4 370.534ZM2301.62 329.811H2251.83V546.17H2299.14L2402.63 405.349V546.17H2452.41V329.711H2405.1L2301.62 470.516V329.811Z" fill="white"/>
</svg>
