<svg width="421" height="421" viewBox="0 0 421 421" fill="none" xmlns="http://www.w3.org/2000/svg">
<g clip-path="url(#clip0_0_3)">
<path d="M237.087 51.1935C238.076 37.8262 242.27 24.8916 249.316 13.4791C251.177 10.3408 253.243 7.57399 255.216 4.43576C272.9 8.26832 290.021 14.3402 306.162 22.5038C300.237 30.2085 296.312 39.2533 294.733 48.8352C293.14 59.3084 294.361 70.0156 298.27 79.8647C302.458 89.4333 308.637 98.0039 316.399 105.008C323.833 111.784 332.193 117.474 341.23 121.906C358.733 130.459 377.685 135.673 397.108 137.281C401.036 137.671 404.982 137.671 408.928 137.671C409.709 140.03 410.901 142.778 411.683 145.526C404.358 146.45 396.989 146.977 389.607 147.105C362.021 147.885 334.045 144.356 308.433 135.313C282.802 125.824 259.162 110.504 246.598 88.1096C239.575 77.1258 236.243 64.1947 237.087 51.1935ZM378.55 238.578C333.636 236.219 288.702 226.805 247.715 207.548C226.842 198.125 207.46 185.714 190.18 170.706C172.851 155.294 157.867 136.836 148.802 115.221C139.385 93.619 136.244 69.8113 139.737 46.5141C141.816 33.2988 145.797 20.4523 151.557 8.37248C126.739 15.3504 103.471 26.9568 82.9844 42.5773C82.5935 45.7341 82.2027 49.2623 81.8118 52.4006C79.8418 78.0235 85.3154 103.67 97.5775 126.27C109.397 148.627 127.471 168.255 147.946 183.983C168.946 199.652 192.023 212.339 216.519 221.679C265.789 240.936 319.378 248.791 372.594 248.401C388 248.272 403.388 247.354 418.7 245.653C419.091 243.294 419.5 240.936 419.891 238.225C406.143 239.332 392.334 239.45 378.569 238.578H378.55ZM208.31 148.627C224.237 160.643 241.742 170.421 260.335 177.688C297.786 192.228 338.773 198.505 379.462 197.725C393.427 197.608 407.373 196.69 421.231 194.977C421.322 193.915 421.188 192.846 420.84 191.838C420.84 190.65 420.45 189.48 420.45 188.292C409.803 188.688 399.162 188.688 388.527 188.292C356.192 186.624 324.46 178.895 294.994 165.507C280.246 158.542 266.479 149.677 254.044 139.138C241.362 128.073 231.038 114.578 223.685 99.4555C216.436 83.8864 213.969 66.5252 216.593 49.5594C219.149 33.3466 225.613 17.9955 235.43 4.82572C236.125 3.82842 236.924 2.90721 237.813 2.07744C222.575 -0.219769 207.121 -0.743222 191.762 0.517613C185.452 0.90757 179.552 2.07744 173.633 2.85736C166.032 17.1222 161.344 32.75 159.84 48.8352C157.918 68.0849 161.759 87.471 170.878 104.543C179.161 121.906 192.619 136.836 208.31 148.627ZM371.887 289.755C314.333 287.397 256.798 275.605 203.973 252.04C177.178 240.342 152.224 224.83 129.891 205.988C107.424 187.122 88.1032 164.337 75.5017 137.281C64.5178 113.841 59.4076 88.0895 60.6108 62.2424C38.6556 84.3896 21.8979 111.119 11.545 140.506C1.19212 169.893 -2.49814 201.204 0.740091 232.185C3.97832 263.166 14.0644 293.044 30.2717 319.668C46.479 346.291 68.4039 368.997 94.4669 386.149C120.53 403.301 150.082 414.472 180.994 418.858C211.906 423.243 243.408 420.734 273.23 411.511C303.053 402.287 330.454 386.579 353.458 365.519C376.463 344.458 394.499 318.57 406.266 289.718C394.775 290.077 383.315 290.058 371.887 289.662V289.755ZM320.252 30.3587C316.762 36.6164 314.845 43.6258 314.668 50.785C314.636 57.2354 316.584 63.541 320.252 68.8531C327.344 79.8462 339.964 87.3111 353.757 91.6377C364.999 95.0112 376.696 96.6273 388.434 96.4286C370.731 69.7728 347.475 47.2376 320.252 30.3587Z" fill="#1345AE"/>
</g>
<defs>
<clipPath id="clip0_0_3">
<rect width="421" height="421" fill="white"/>
</clipPath>
</defs>
</svg>
