<svg width="2471" height="421" viewBox="0 0 2471 421" fill="none" xmlns="http://www.w3.org/2000/svg">
<g clip-path="url(#clip0_0_3)">
<path d="M236.524 51.1935C237.51 37.8262 241.694 24.8916 248.724 13.4791C250.581 10.3408 252.642 7.57399 254.61 4.43576C272.252 8.26832 289.332 14.3402 305.435 22.5038C299.524 30.2085 295.608 39.2533 294.033 48.8352C292.444 59.3084 293.662 70.0156 297.561 79.8647C301.739 89.4333 307.904 98.0039 315.648 105.008C323.064 111.784 331.404 117.474 340.419 121.906C357.881 130.459 376.788 135.673 396.165 137.281C400.083 137.671 404.02 137.671 407.956 137.671C408.736 140.03 409.925 142.778 410.705 145.526C403.397 146.45 396.046 146.977 388.681 147.105C361.161 147.885 333.252 144.356 307.7 135.313C282.13 125.824 258.547 110.504 246.013 88.1096C239.006 77.1258 235.682 64.1947 236.524 51.1935ZM377.651 238.578C332.843 236.219 288.017 226.805 247.127 207.548C226.304 198.125 206.967 185.714 189.729 170.706C172.44 155.294 157.492 136.836 148.449 115.221C139.054 93.619 135.92 69.8113 139.405 46.5141C141.479 33.2988 145.451 20.4523 151.197 8.37248C126.438 15.3504 103.225 26.9568 82.7873 42.5773C82.3974 45.7341 82.0074 49.2623 81.6175 52.4006C79.6522 78.0235 85.1128 103.67 97.3458 126.27C109.137 148.627 127.168 168.255 147.595 183.983C168.545 199.652 191.567 212.339 216.004 221.679C265.158 240.936 318.619 248.791 371.709 248.401C387.078 248.272 402.43 247.354 417.705 245.653C418.095 243.294 418.504 240.936 418.894 238.225C405.179 239.332 391.402 239.45 377.67 238.578H377.651ZM207.815 148.627C223.705 160.643 241.168 170.421 259.717 177.688C297.078 192.228 337.968 198.505 378.561 197.725C392.492 197.608 406.405 196.69 420.231 194.977C420.321 193.915 420.188 192.846 419.841 191.838C419.841 190.65 419.451 189.48 419.451 188.292C408.829 188.688 398.214 188.688 387.604 188.292C355.346 186.624 323.69 178.895 294.293 165.507C279.581 158.542 265.846 149.677 253.44 139.138C240.788 128.073 230.489 114.578 223.154 99.4555C215.922 83.8864 213.46 66.5252 216.079 49.5594C218.628 33.3466 225.077 17.9955 234.871 4.82572C235.564 3.82842 236.361 2.90721 237.248 2.07744C222.046 -0.219769 206.629 -0.743222 191.307 0.517613C185.012 0.90757 179.125 2.07744 173.22 2.85736C165.638 17.1222 160.961 32.75 159.46 48.8352C157.543 68.0849 161.375 87.471 170.472 104.543C178.736 121.906 192.161 136.836 207.815 148.627ZM371.003 289.755C313.587 287.397 256.189 275.605 203.489 252.04C176.757 240.342 151.863 224.83 129.582 205.988C107.169 187.122 87.8939 164.337 75.3224 137.281C64.3646 113.841 59.2665 88.0895 60.4669 62.2424C38.5638 84.3896 21.8459 111.119 11.5176 140.506C1.18932 169.893 -2.49218 201.204 0.738363 232.185C3.96891 263.166 14.0311 293.044 30.1998 319.668C46.3686 346.291 68.2415 368.997 94.2425 386.149C120.244 403.301 149.725 414.472 180.564 418.858C211.402 423.243 242.83 420.734 272.581 411.511C302.333 402.287 329.669 386.579 352.619 365.519C375.569 344.458 393.562 318.57 405.301 289.718C393.837 290.077 382.405 290.058 371.003 289.662V289.755ZM319.492 30.3587C316.009 36.6164 314.098 43.6258 313.921 50.785C313.888 57.2354 315.832 63.541 319.492 68.8531C326.567 79.8462 339.157 87.3111 352.917 91.6377C364.132 95.0112 375.802 96.6273 387.511 96.4286C369.85 69.7728 346.65 47.2376 319.492 30.3587Z" fill="#1345AE"/>
<path d="M1375.7 288.993C1361.58 281.677 1349.83 270.481 1341.85 256.72C1333.61 242.789 1329.39 226.85 1329.65 210.668C1329.39 194.485 1333.61 178.546 1341.85 164.616C1350.05 151.034 1361.74 139.897 1375.7 132.36C1390.71 124.367 1407.5 120.31 1424.5 120.569C1441.39 120.267 1458.06 124.336 1472.91 132.379C1486.95 139.806 1498.66 150.969 1506.75 164.634C1514.99 178.582 1519.34 194.486 1519.34 210.686C1519.34 226.887 1514.99 242.791 1506.75 256.738C1498.55 270.32 1486.87 281.463 1472.91 289.012C1458.05 297.011 1441.38 301.076 1424.5 300.822C1407.54 300.72 1390.83 296.67 1375.7 288.993ZM1452.04 259.078C1460.14 254.399 1466.81 247.6 1471.33 239.413C1475.98 230.551 1478.41 220.693 1478.41 210.686C1478.41 200.679 1475.98 190.822 1471.33 181.959C1466.81 173.769 1460.14 166.964 1452.04 162.276C1443.46 157.632 1433.86 155.201 1424.1 155.201C1414.35 155.201 1404.74 157.632 1396.17 162.276C1388.08 166.968 1381.42 173.764 1376.89 181.941C1372.24 190.805 1369.81 200.666 1369.81 210.677C1369.81 220.688 1372.24 230.548 1376.89 239.413C1381.42 247.603 1388.09 254.408 1396.18 259.097C1404.69 263.857 1414.29 266.303 1424.04 266.19C1433.84 266.374 1443.51 263.917 1452.04 259.078ZM651.94 153.232C646.035 143.781 637.382 136.706 625.943 131.581C614.504 126.455 601.134 124.153 585.796 124.153H510.664V297.313H550.811V249.236H585.833C601.171 249.236 614.56 246.878 625.98 241.809C636.586 237.313 645.629 229.787 651.977 220.175C658.081 210.107 661.222 198.522 661.039 186.75C661.291 174.93 658.132 163.286 651.94 153.214V153.232ZM620.855 187.085C620.855 196.518 617.717 204.001 611.403 209.108C605.089 214.214 595.675 216.981 583.864 216.981H551.201V156.761H583.864C596.065 156.761 605.108 159.509 611.403 164.616C617.698 169.722 620.855 177.224 620.855 187.066V187.085ZM722.782 124.097H683.044V297.647H720.814L803.466 184.689V297.647H843.224V124.097H805.435L722.782 237.036V124.097ZM996.7 260.267H916.016L900.677 297.647H859.36L936.888 124.097H976.626L1054.17 297.647H1012.06L996.7 260.267ZM983.701 229.961L956.163 163.446L928.624 229.961H983.701ZM1291.84 297.647V124.097H1251.73V192.562H1173.02V124.097H1132.87V297.647H1173.02V226.415H1251.73V297.647H1291.84ZM1709.41 248.846C1709.41 238.225 1706.66 229.553 1701.15 222.478C1694.85 215.09 1686.49 209.744 1677.14 207.121C1684.57 203.951 1690.88 198.614 1695.23 191.806C1699.58 184.999 1701.78 177.037 1701.54 168.961C1701.54 154.792 1695.97 143.762 1684.62 135.889C1673.28 128.015 1657.49 124.097 1637.42 124.097H1556.73V297.647H1642.15C1663.81 297.647 1680.33 293.32 1692.14 284.648C1703.53 276.385 1709.43 264.203 1709.43 248.846H1709.41ZM1633.85 195.719H1596.47V153.214H1633.87C1642.53 153.214 1648.82 155.182 1653.56 158.785C1655.75 160.756 1657.49 163.187 1658.65 165.905C1659.8 168.623 1660.35 171.562 1660.24 174.513C1660.24 181.607 1657.88 186.713 1653.56 190.26C1649.23 193.807 1642.53 195.719 1633.87 195.719H1633.85ZM1640.54 223.573C1659.42 223.573 1668.88 230.667 1668.88 245.225C1668.88 260.192 1659.43 267.67 1640.54 267.657H1596.47V223.648L1640.54 223.573ZM1781.44 288.919C1767.32 281.603 1755.57 270.406 1747.59 256.646C1739.35 242.715 1735.13 226.776 1735.39 210.593C1735.13 194.411 1739.35 178.472 1747.59 164.541C1755.79 150.956 1767.48 139.818 1781.44 132.286C1796.46 124.318 1813.25 120.286 1830.24 120.569C1847.13 120.265 1863.81 124.333 1878.65 132.379C1892.7 139.806 1904.41 150.968 1912.51 164.634C1920.75 178.582 1925.1 194.486 1925.1 210.686C1925.1 226.887 1920.75 242.791 1912.51 256.738C1904.3 270.325 1892.62 281.468 1878.65 289.012C1863.79 297.011 1847.12 301.076 1830.24 300.822C1813.29 300.671 1796.6 296.624 1781.46 288.993L1781.44 288.919ZM1857.84 259.078C1865.94 254.389 1872.61 247.585 1877.13 239.395C1881.78 230.532 1884.21 220.675 1884.21 210.668C1884.21 200.661 1881.78 190.803 1877.13 181.941C1872.6 173.755 1865.93 166.952 1857.84 162.257C1849.25 157.614 1839.65 155.182 1829.89 155.182C1820.13 155.182 1810.53 157.614 1801.94 162.257C1793.86 166.952 1787.19 173.755 1782.67 181.941C1778.02 190.803 1775.59 200.661 1775.59 210.668C1775.59 220.675 1778.02 230.532 1782.67 239.395C1787.19 247.584 1793.85 254.389 1801.94 259.078C1810.45 263.838 1820.05 266.284 1829.8 266.172C1839.61 266.367 1849.3 263.917 1857.84 259.078ZM1962.53 257.11C1970.85 270.492 1982.51 281.48 1996.37 288.993C2010.92 296.867 2026.67 300.395 2044.78 300.395C2058.78 300.516 2072.67 297.839 2085.63 292.522C2097.57 287.349 2108.09 279.389 2116.32 269.31L2090.33 245.69C2078.52 259.468 2063.96 266.116 2046.63 266.116C2036.6 266.295 2026.7 263.85 2017.91 259.022C2009.7 254.349 2002.9 247.55 1998.22 239.339C1993.58 230.477 1991.15 220.619 1991.15 210.612C1991.15 200.605 1993.58 190.747 1998.22 181.885C2002.9 173.678 2009.7 166.88 2017.91 162.202C2026.7 157.381 2036.6 154.942 2046.63 155.127C2063.96 155.127 2078.52 162.202 2090.33 175.553L2116.32 151.933C2108.07 141.974 2097.54 134.147 2085.63 129.111C2072.67 123.802 2058.78 121.126 2044.78 121.237C2026.67 121.237 2010.53 124.784 1996.37 132.658C1982.27 139.821 1970.53 150.881 1962.53 164.523C1954.27 177.911 1950.33 193.268 1950.33 210.575C1950.33 227.882 1954.23 243.721 1962.5 257.11H1962.53ZM2279.35 156.835H2223.84V297.721H2184.1V156.761H2128.95V124.097H2279.36L2279.35 156.835ZM2350.58 124.171H2310.82V297.721H2348.61L2431.24 184.763V297.721H2471V124.097H2433.21L2350.58 237.036V124.171Z" fill="#003057"/>
</g>
<defs>
<clipPath id="clip0_0_3">
<rect width="2471" height="421" fill="white"/>
</clipPath>
</defs>
</svg>
